<?xml version="1.0" encoding="UTF-8" standalone="no"?>
<!-- Created with Inkscape (http://www.inkscape.org/) -->

<svg
   xmlns:dc="http://purl.org/dc/elements/1.1/"
   xmlns:cc="http://creativecommons.org/ns#"
   xmlns:rdf="http://www.w3.org/1999/02/22-rdf-syntax-ns#"
   xmlns:svg="http://www.w3.org/2000/svg"
   xmlns="http://www.w3.org/2000/svg"
   xmlns:sodipodi="http://sodipodi.sourceforge.net/DTD/sodipodi-0.dtd"
   xmlns:inkscape="http://www.inkscape.org/namespaces/inkscape"
   width="210mm"
   height="297mm"
   viewBox="0 0 744.09448819 1052.3622047"
   id="svg2"
   version="1.1"
   inkscape:version="0.91 r13725"
   sodipodi:docname="icon_v1.svg">
  <defs
     id="defs4" />
  <sodipodi:namedview
     id="base"
     pagecolor="#ffffff"
     bordercolor="#666666"
     borderopacity="1.0"
     inkscape:pageopacity="0.0"
     inkscape:pageshadow="2"
     inkscape:zoom="0.028284271"
     inkscape:cx="-8721.8774"
     inkscape:cy="-2137.2899"
     inkscape:document-units="px"
     inkscape:current-layer="layer1"
     showgrid="false"
     showborder="false"
     inkscape:window-width="1680"
     inkscape:window-height="987"
     inkscape:window-x="-8"
     inkscape:window-y="-8"
     inkscape:window-maximized="1" />
  <metadata
     id="metadata7">
    <rdf:RDF>
      <cc:Work
         rdf:about="">
        <dc:format>image/svg+xml</dc:format>
        <dc:type
           rdf:resource="http://purl.org/dc/dcmitype/StillImage" />
        <dc:title></dc:title>
      </cc:Work>
    </rdf:RDF>
  </metadata>
  <g
     inkscape:label="Background"
     inkscape:groupmode="layer"
     id="layer1"
     style="display:inline">
    <g
       id="g4364"
       transform="translate(-8268.5714,-2211.4286)">
      <circle
         r="1714.2858"
         cy="1549.505"
         cx="-17.142857"
         id="path4146"
         style="fill:#3771c8;fill-opacity:1;fill-rule:nonzero;stroke:none;stroke-width:5;stroke-miterlimit:4;stroke-dasharray:none;stroke-opacity:1" />
      <circle
         style="fill:#e6e6e6;fill-opacity:1;fill-rule:nonzero;stroke:none;stroke-width:5;stroke-miterlimit:4;stroke-dasharray:none;stroke-opacity:1"
         id="circle4148"
         cx="-17.142857"
         cy="1549.505"
         r="1554.2858" />
      <circle
         r="1400"
         cy="1549.505"
         cx="-17.142857"
         id="circle4150"
         style="fill:#3771c8;fill-opacity:1;fill-rule:nonzero;stroke:none;stroke-width:5;stroke-miterlimit:4;stroke-dasharray:none;stroke-opacity:1" />
    </g>
  </g>
  <g
     inkscape:groupmode="layer"
     id="layer2"
     inkscape:label="Button info">
    <g
       id="g4155"
       inkscape:groupmode="layer"
       inkscape:label="Background" />
    <g
       inkscape:groupmode="layer"
       id="layer3"
       inkscape:label="Logo">
      <text
         xml:space="preserve"
         style="font-style:normal;font-weight:normal;font-size:40px;line-height:125%;font-family:sans-serif;letter-spacing:0px;word-spacing:0px;fill:#000000;fill-opacity:1;stroke:none;stroke-width:1px;stroke-linecap:butt;stroke-linejoin:miter;stroke-opacity:1"
         x="-16453.365"
         y="1488.748"
         id="text4167"
         sodipodi:linespacing="125%"><tspan
           sodipodi:role="line"
           id="tspan4169"
           x="-16453.365"
           y="1488.748"
           style="font-style:normal;font-variant:normal;font-weight:normal;font-stretch:normal;font-size:1250px;font-family:'Lemon/Milk';-inkscape-font-specification:'Lemon/Milk'" /></text>
      <g
         id="g4356"
         transform="translate(10452.784,-6090.4144)">
        <g
           transform="translate(7370.073,3878.9858)"
           id="g4280">
          <circle
             r="1714.2858"
             cy="1549.505"
             cx="-16108.571"
             id="circle4157"
             style="fill:#3771c8;fill-opacity:1;fill-rule:nonzero;stroke:none;stroke-width:5;stroke-miterlimit:4;stroke-dasharray:none;stroke-opacity:1" />
          <circle
             style="fill:#e6e6e6;fill-opacity:1;fill-rule:nonzero;stroke:none;stroke-width:5;stroke-miterlimit:4;stroke-dasharray:none;stroke-opacity:1"
             id="circle4159"
             cx="-16108.571"
             cy="1549.505"
             r="1554.2858" />
          <circle
             r="1400"
             cy="1549.505"
             cx="-16108.571"
             id="circle4161"
             style="fill:#3771c8;fill-opacity:1;fill-rule:nonzero;stroke:none;stroke-width:5;stroke-miterlimit:4;stroke-dasharray:none;stroke-opacity:1" />
          <text
             xml:space="preserve"
             style="font-style:normal;font-variant:normal;font-weight:bold;font-stretch:normal;font-size:2970.2199707px;line-height:125%;font-family:'Trebuchet MS';-inkscape-font-specification:'Trebuchet MS Bold';letter-spacing:0px;word-spacing:0px;fill:#e6e6e6;fill-opacity:1;stroke:none;stroke-width:1px;stroke-linecap:butt;stroke-linejoin:miter;stroke-opacity:1"
             x="-16597.242"
             y="2579.7129"
             id="text4171"
             sodipodi:linespacing="125%"><tspan
               sodipodi:role="line"
               id="tspan4173"
               x="-16597.242"
               y="2579.7129"
               style="font-style:normal;font-variant:normal;font-weight:bold;font-stretch:normal;font-family:'PT Serif';-inkscape-font-specification:'PT Serif Bold'">i</tspan></text>
        </g>
      </g>
    </g>
  </g>
  <g
     inkscape:label="Button réglage"
     id="g4175"
     inkscape:groupmode="layer">
    <g
       inkscape:label="Background"
       inkscape:groupmode="layer"
       id="g4177" />
    <g
       inkscape:label="Logo"
       id="g4185"
       inkscape:groupmode="layer"
       style="display:inline">
      <text
         sodipodi:linespacing="125%"
         id="text4187"
         y="1488.748"
         x="-16453.365"
         style="font-style:normal;font-weight:normal;font-size:40px;line-height:125%;font-family:sans-serif;letter-spacing:0px;word-spacing:0px;fill:#000000;fill-opacity:1;stroke:none;stroke-width:1px;stroke-linecap:butt;stroke-linejoin:miter;stroke-opacity:1"
         xml:space="preserve"><tspan
           style="font-style:normal;font-variant:normal;font-weight:normal;font-stretch:normal;font-size:1250px;font-family:'Lemon/Milk';-inkscape-font-specification:'Lemon/Milk'"
           y="1488.748"
           x="-16453.365"
           id="tspan4189"
           sodipodi:role="line" /></text>
      <g
         id="g4271"
         transform="translate(10408.612,-5000)">
        <circle
           r="1714.2858"
           cy="-661.92358"
           cx="-8694.3262"
           id="circle4179"
           style="fill:#3771c8;fill-opacity:1;fill-rule:nonzero;stroke:none;stroke-width:5;stroke-miterlimit:4;stroke-dasharray:none;stroke-opacity:1" />
        <circle
           style="fill:#e6e6e6;fill-opacity:1;fill-rule:nonzero;stroke:none;stroke-width:5;stroke-miterlimit:4;stroke-dasharray:none;stroke-opacity:1"
           id="circle4181"
           cx="-8694.3262"
           cy="-661.92358"
           r="1554.2858" />
        <circle
           r="1400"
           cy="-661.92358"
           cx="-8694.3262"
           id="circle4183"
           style="fill:#3771c8;fill-opacity:1;fill-rule:nonzero;stroke:none;stroke-width:5;stroke-miterlimit:4;stroke-dasharray:none;stroke-opacity:1" />
        <path
           inkscape:connector-curvature="0"
           id="path4239"
           d="m -8784.818,-1581.9236 c -32.175,0 -58.08,27.1246 -58.08,60.8184 l 0,116.5507 a 731.42859,731.42859 0 0 0 -266.826,117.1192 l -87.0779,-87.0781 c -23.825,-23.8251 -61.321,-24.6889 -84.072,-1.9375 l -127.9791,127.9766 c -22.751,22.7513 -21.886,60.2471 1.94,84.0722 l 94.21,94.2109 a 731.42859,731.42859 0 0 0 -96.584,259.69535 l -144.22,0 c -33.694,0 -60.819,25.9028 -60.819,58.0781 l 0,180.98634 c 0,32.1753 27.125,58.0782 60.819,58.0782 l 155.965,0 a 731.42859,731.42859 0 0 0 107.2261,237.3085 l -116.5971,116.5977 c -23.826,23.8251 -24.691,61.320898 -1.94,84.072288 l 127.9771,127.97651 c 22.751,22.7514 60.249,21.8876 84.074,-1.9375 l 121.4119,-121.4121 a 731.42859,731.42859 0 0 0 232.492,94.8106 l 0,173.193302 c 0,33.69379 25.905,60.82029 58.08,60.82029 l 180.987,0 c 32.175,0 58.078,-27.1265 58.078,-60.82029 l 0,-171.126902 a 731.42859,731.42859 0 0 0 237.009,-92.3594 l 116.895,116.8945 c 23.825,23.8251 61.323,24.6889 84.074,1.9375 l 127.977,-127.97651 c 22.751,-22.75139 21.885,-60.247188 -1.94,-84.072288 l -109.615,-109.6152 a 731.42859,731.42859 0 0 0 111.463,-244.291 l 144.746,0 c 33.694,0 60.818,-25.9029 60.818,-58.0782 l 0,-180.98634 c 0,-32.1753 -27.124,-58.0781 -60.818,-58.0781 l -132.158,0 a 731.42859,731.42859 0 0 0 -101.211,-267.13095 l 86.775,-86.7753 c 23.825,-23.8251 24.691,-61.3209 1.94,-84.0722 l -127.979,-127.9766 c -22.751,-22.7514 -60.247,-21.8876 -84.072,1.9375 l -81.822,81.8222 a 731.42859,731.42859 0 0 0 -272.082,-115.0234 l 0,-113.3906 c 0,-33.6938 -25.903,-60.8184 -58.078,-60.8184 l -180.987,0 z m 96.205,502.8574 a 388.57144,388.57144 0 0 1 388.573,388.57039 388.57144,388.57144 0 0 1 -388.573,388.5722 388.57144,388.57144 0 0 1 -388.57,-388.5722 388.57144,388.57144 0 0 1 388.57,-388.57039 z"
           style="fill:#e6e6e6;fill-opacity:1;fill-rule:nonzero;stroke:none;stroke-width:5;stroke-miterlimit:4;stroke-dasharray:none;stroke-opacity:1" />
      </g>
    </g>
  </g>
  <g
     inkscape:label="Button suivant"
     id="g4215"
     inkscape:groupmode="layer">
    <g
       inkscape:label="Background"
       inkscape:groupmode="layer"
       id="g4217" />
    <g
       inkscape:label="Logo"
       id="g4225"
       inkscape:groupmode="layer">
      <text
         sodipodi:linespacing="125%"
         id="text4227"
         y="1488.748"
         x="-16453.365"
         style="font-style:normal;font-weight:normal;font-size:40px;line-height:125%;font-family:sans-serif;letter-spacing:0px;word-spacing:0px;fill:#000000;fill-opacity:1;stroke:none;stroke-width:1px;stroke-linecap:butt;stroke-linejoin:miter;stroke-opacity:1"
         xml:space="preserve"><tspan
           style="font-style:normal;font-variant:normal;font-weight:normal;font-stretch:normal;font-size:1250px;font-family:'Lemon/Milk';-inkscape-font-specification:'Lemon/Milk'"
           y="1488.748"
           x="-16453.365"
           id="tspan4229"
           sodipodi:role="line" /></text>
      <g
         id="g4348"
         transform="translate(22822.857,-11381.338)">
        <circle
           r="1714.2858"
           cy="5719.4146"
           cx="-16108.571"
           id="circle4219"
           style="fill:#3771c8;fill-opacity:1;fill-rule:nonzero;stroke:none;stroke-width:5;stroke-miterlimit:4;stroke-dasharray:none;stroke-opacity:1" />
        <circle
           style="fill:#e6e6e6;fill-opacity:1;fill-rule:nonzero;stroke:none;stroke-width:5;stroke-miterlimit:4;stroke-dasharray:none;stroke-opacity:1"
           id="circle4221"
           cx="-16108.571"
           cy="5719.4146"
           r="1554.2858" />
        <circle
           r="1400"
           cy="5719.4146"
           cx="-16108.571"
           id="circle4223"
           style="fill:#3771c8;fill-opacity:1;fill-rule:nonzero;stroke:none;stroke-width:5;stroke-miterlimit:4;stroke-dasharray:none;stroke-opacity:1" />
        <g
           transform="matrix(-1,0,0,-1,-32277.096,11333.923)"
           id="g4308">
          <path
             style="fill:#e6e6e6;fill-opacity:1;fill-rule:nonzero;stroke:none;stroke-width:5;stroke-miterlimit:4;stroke-dasharray:none;stroke-opacity:1"
             d="m -16698.264,4985.3138 c -2.784,0.038 -5.582,1.1433 -7.744,3.3059 l -618.083,618.0815 c -4.325,4.3253 -4.419,11.1947 -0.211,15.4026 l 618.505,618.5054 c 4.208,4.2079 11.077,4.1132 15.402,-0.2121 l 0.256,-0.255 0,-1251.2678 -0.467,-0.4667 c -2.104,-2.1039 -4.873,-3.1322 -7.658,-3.0938 z"
             id="rect4301"
             inkscape:connector-curvature="0" />
          <rect
             style="fill:#e6e6e6;fill-opacity:1;fill-rule:nonzero;stroke:none;stroke-width:5;stroke-miterlimit:4;stroke-dasharray:none;stroke-opacity:1"
             id="rect4303"
             width="1916.6309"
             height="671.13202"
             x="-16926.283"
             y="5278.9424"
             rx="11.059363"
             ry="9.3495922" />
        </g>
      </g>
    </g>
  </g>
  <g
     inkscape:groupmode="layer"
     id="g4312"
     inkscape:label="Button précédent">
    <g
       id="g4314"
       inkscape:groupmode="layer"
       inkscape:label="Background" />
    <g
       inkscape:groupmode="layer"
       id="g4322"
       inkscape:label="Logo">
      <text
         xml:space="preserve"
         style="font-style:normal;font-weight:normal;font-size:40px;line-height:125%;font-family:sans-serif;letter-spacing:0px;word-spacing:0px;fill:#000000;fill-opacity:1;stroke:none;stroke-width:1px;stroke-linecap:butt;stroke-linejoin:miter;stroke-opacity:1"
         x="-16453.365"
         y="1488.748"
         id="text4324"
         sodipodi:linespacing="125%"><tspan
           sodipodi:role="line"
           id="tspan4326"
           x="-16453.365"
           y="1488.748"
           style="font-style:normal;font-variant:normal;font-weight:normal;font-stretch:normal;font-size:1250px;font-family:'Lemon/Milk';-inkscape-font-specification:'Lemon/Milk'" /></text>
      <g
         id="g4337"
         transform="translate(22822.857,-2067.9868)">
        <circle
           style="fill:#3771c8;fill-opacity:1;fill-rule:nonzero;stroke:none;stroke-width:5;stroke-miterlimit:4;stroke-dasharray:none;stroke-opacity:1"
           id="circle4316"
           cx="-16108.571"
           cy="1406.0632"
           r="1714.2858" />
        <circle
           r="1554.2858"
           cy="1406.0632"
           cx="-16108.571"
           id="circle4318"
           style="fill:#e6e6e6;fill-opacity:1;fill-rule:nonzero;stroke:none;stroke-width:5;stroke-miterlimit:4;stroke-dasharray:none;stroke-opacity:1" />
        <circle
           style="fill:#3771c8;fill-opacity:1;fill-rule:nonzero;stroke:none;stroke-width:5;stroke-miterlimit:4;stroke-dasharray:none;stroke-opacity:1"
           id="circle4320"
           cx="-16108.571"
           cy="1406.0632"
           r="1400" />
        <g
           id="g4328"
           transform="translate(59.953581,-4208.4452)">
          <path
             inkscape:connector-curvature="0"
             id="path4330"
             d="m -16698.264,4985.3138 c -2.784,0.038 -5.582,1.1433 -7.744,3.3059 l -618.083,618.0815 c -4.325,4.3253 -4.419,11.1947 -0.211,15.4026 l 618.505,618.5054 c 4.208,4.2079 11.077,4.1132 15.402,-0.2121 l 0.256,-0.255 0,-1251.2678 -0.467,-0.4667 c -2.104,-2.1039 -4.873,-3.1322 -7.658,-3.0938 z"
             style="fill:#e6e6e6;fill-opacity:1;fill-rule:nonzero;stroke:none;stroke-width:5;stroke-miterlimit:4;stroke-dasharray:none;stroke-opacity:1" />
          <rect
             ry="9.3495922"
             rx="11.059363"
             y="5278.9424"
             x="-16926.283"
             height="671.13202"
             width="1916.6309"
             id="rect4332"
             style="fill:#e6e6e6;fill-opacity:1;fill-rule:nonzero;stroke:none;stroke-width:5;stroke-miterlimit:4;stroke-dasharray:none;stroke-opacity:1" />
        </g>
      </g>
    </g>
  </g>
</svg>
